<mxfile host="app.diagrams.net" modified="2024-02-05T14:07:04.865Z" agent="Mozilla/5.0 (Macintosh; Intel Mac OS X 10_15_7) AppleWebKit/537.36 (KHTML, like Gecko) Chrome/121.0.0.0 Safari/537.36" etag="KQmR5J0bMc_FC5c237c1" version="23.0.2" type="device">
  <diagram name="Page-1" id="xE_SlZCC_K1syiO7TZXq">
    <mxGraphModel dx="2074" dy="1073" grid="1" gridSize="10" guides="1" tooltips="1" connect="1" arrows="1" fold="1" page="1" pageScale="1" pageWidth="850" pageHeight="1100" math="0" shadow="0">
      <root>
        <mxCell id="0" />
        <mxCell id="1" parent="0" />
        <mxCell id="VB5Qx51AAR3BXwwDLeTd-1" value="" style="endArrow=classic;html=1;rounded=0;strokeWidth=2;" edge="1" parent="1">
          <mxGeometry width="50" height="50" relative="1" as="geometry">
            <mxPoint x="200" y="540" as="sourcePoint" />
            <mxPoint x="200" y="160" as="targetPoint" />
          </mxGeometry>
        </mxCell>
        <mxCell id="VB5Qx51AAR3BXwwDLeTd-2" value="" style="endArrow=classic;html=1;rounded=0;strokeWidth=2;" edge="1" parent="1">
          <mxGeometry width="50" height="50" relative="1" as="geometry">
            <mxPoint x="120" y="440" as="sourcePoint" />
            <mxPoint x="750" y="440" as="targetPoint" />
          </mxGeometry>
        </mxCell>
        <mxCell id="VB5Qx51AAR3BXwwDLeTd-3" value="" style="endArrow=none;dashed=1;html=1;dashPattern=1 3;strokeWidth=2;rounded=0;" edge="1" parent="1" source="VB5Qx51AAR3BXwwDLeTd-23">
          <mxGeometry width="50" height="50" relative="1" as="geometry">
            <mxPoint x="240" y="440" as="sourcePoint" />
            <mxPoint x="240" y="340" as="targetPoint" />
          </mxGeometry>
        </mxCell>
        <mxCell id="VB5Qx51AAR3BXwwDLeTd-4" value="" style="endArrow=none;dashed=1;html=1;dashPattern=1 3;strokeWidth=2;rounded=0;" edge="1" parent="1">
          <mxGeometry width="50" height="50" relative="1" as="geometry">
            <mxPoint x="320" y="440" as="sourcePoint" />
            <mxPoint x="320" y="350" as="targetPoint" />
          </mxGeometry>
        </mxCell>
        <mxCell id="VB5Qx51AAR3BXwwDLeTd-5" value="" style="endArrow=none;dashed=1;html=1;dashPattern=1 3;strokeWidth=2;rounded=0;" edge="1" parent="1">
          <mxGeometry width="50" height="50" relative="1" as="geometry">
            <mxPoint x="360" y="440" as="sourcePoint" />
            <mxPoint x="360" y="340" as="targetPoint" />
          </mxGeometry>
        </mxCell>
        <mxCell id="VB5Qx51AAR3BXwwDLeTd-6" value="" style="endArrow=none;dashed=1;html=1;dashPattern=1 3;strokeWidth=2;rounded=0;" edge="1" parent="1" source="VB5Qx51AAR3BXwwDLeTd-31">
          <mxGeometry width="50" height="50" relative="1" as="geometry">
            <mxPoint x="440" y="290" as="sourcePoint" />
            <mxPoint x="200" y="290" as="targetPoint" />
          </mxGeometry>
        </mxCell>
        <mxCell id="VB5Qx51AAR3BXwwDLeTd-7" value="" style="endArrow=none;dashed=1;html=1;dashPattern=1 3;strokeWidth=2;rounded=0;" edge="1" parent="1">
          <mxGeometry width="50" height="50" relative="1" as="geometry">
            <mxPoint x="440" y="440" as="sourcePoint" />
            <mxPoint x="440" y="290" as="targetPoint" />
          </mxGeometry>
        </mxCell>
        <mxCell id="VB5Qx51AAR3BXwwDLeTd-8" value="" style="endArrow=none;dashed=1;html=1;dashPattern=1 3;strokeWidth=2;rounded=0;" edge="1" parent="1">
          <mxGeometry width="50" height="50" relative="1" as="geometry">
            <mxPoint x="400" y="250" as="sourcePoint" />
            <mxPoint x="200" y="250" as="targetPoint" />
          </mxGeometry>
        </mxCell>
        <mxCell id="VB5Qx51AAR3BXwwDLeTd-9" value="" style="endArrow=none;dashed=1;html=1;dashPattern=1 3;strokeWidth=2;rounded=0;" edge="1" parent="1">
          <mxGeometry width="50" height="50" relative="1" as="geometry">
            <mxPoint x="354" y="340" as="sourcePoint" />
            <mxPoint x="200" y="340" as="targetPoint" />
          </mxGeometry>
        </mxCell>
        <mxCell id="VB5Qx51AAR3BXwwDLeTd-10" value="" style="endArrow=none;dashed=1;html=1;dashPattern=1 3;strokeWidth=2;rounded=0;" edge="1" parent="1">
          <mxGeometry width="50" height="50" relative="1" as="geometry">
            <mxPoint x="480" y="440" as="sourcePoint" />
            <mxPoint x="480" y="390" as="targetPoint" />
          </mxGeometry>
        </mxCell>
        <mxCell id="VB5Qx51AAR3BXwwDLeTd-11" value="" style="endArrow=none;dashed=1;html=1;dashPattern=1 3;strokeWidth=2;rounded=0;" edge="1" parent="1">
          <mxGeometry width="50" height="50" relative="1" as="geometry">
            <mxPoint x="480" y="390" as="sourcePoint" />
            <mxPoint x="200" y="390" as="targetPoint" />
          </mxGeometry>
        </mxCell>
        <mxCell id="VB5Qx51AAR3BXwwDLeTd-12" value="" style="endArrow=none;dashed=1;html=1;dashPattern=1 3;strokeWidth=2;rounded=0;" edge="1" parent="1">
          <mxGeometry width="50" height="50" relative="1" as="geometry">
            <mxPoint x="520" y="440" as="sourcePoint" />
            <mxPoint x="520" y="300" as="targetPoint" />
          </mxGeometry>
        </mxCell>
        <mxCell id="VB5Qx51AAR3BXwwDLeTd-13" value="" style="endArrow=none;dashed=1;html=1;dashPattern=1 3;strokeWidth=2;rounded=0;" edge="1" parent="1">
          <mxGeometry width="50" height="50" relative="1" as="geometry">
            <mxPoint x="520" y="300" as="sourcePoint" />
            <mxPoint x="200" y="300" as="targetPoint" />
          </mxGeometry>
        </mxCell>
        <mxCell id="VB5Qx51AAR3BXwwDLeTd-14" value="" style="endArrow=none;dashed=1;html=1;dashPattern=1 3;strokeWidth=2;rounded=0;" edge="1" parent="1">
          <mxGeometry width="50" height="50" relative="1" as="geometry">
            <mxPoint x="560" y="440" as="sourcePoint" />
            <mxPoint x="560" y="260" as="targetPoint" />
          </mxGeometry>
        </mxCell>
        <mxCell id="VB5Qx51AAR3BXwwDLeTd-15" value="" style="endArrow=none;dashed=1;html=1;dashPattern=1 3;strokeWidth=2;rounded=0;" edge="1" parent="1">
          <mxGeometry width="50" height="50" relative="1" as="geometry">
            <mxPoint x="560" y="260" as="sourcePoint" />
            <mxPoint x="200" y="260" as="targetPoint" />
          </mxGeometry>
        </mxCell>
        <mxCell id="VB5Qx51AAR3BXwwDLeTd-16" value="" style="endArrow=none;dashed=1;html=1;dashPattern=1 3;strokeWidth=2;rounded=0;" edge="1" parent="1">
          <mxGeometry width="50" height="50" relative="1" as="geometry">
            <mxPoint x="600" y="440" as="sourcePoint" />
            <mxPoint x="600" y="350" as="targetPoint" />
          </mxGeometry>
        </mxCell>
        <mxCell id="VB5Qx51AAR3BXwwDLeTd-17" value="&lt;h4&gt;&lt;span style=&quot;font-weight: normal;&quot;&gt;&lt;font style=&quot;font-size: 21px;&quot;&gt;f&lt;/font&gt;&lt;/span&gt;&lt;/h4&gt;" style="text;html=1;strokeColor=none;fillColor=none;align=center;verticalAlign=middle;whiteSpace=wrap;rounded=0;" vertex="1" parent="1">
          <mxGeometry x="150" y="170" width="60" height="30" as="geometry" />
        </mxCell>
        <mxCell id="VB5Qx51AAR3BXwwDLeTd-18" value="&lt;h4&gt;&lt;span style=&quot;font-weight: normal;&quot;&gt;&lt;font style=&quot;font-size: 21px;&quot;&gt;t&lt;/font&gt;&lt;/span&gt;&lt;/h4&gt;" style="text;html=1;strokeColor=none;fillColor=none;align=center;verticalAlign=middle;whiteSpace=wrap;rounded=0;" vertex="1" parent="1">
          <mxGeometry x="680" y="450" width="60" height="30" as="geometry" />
        </mxCell>
        <mxCell id="VB5Qx51AAR3BXwwDLeTd-19" value="" style="endArrow=none;dashed=1;html=1;dashPattern=1 3;strokeWidth=2;rounded=0;" edge="1" parent="1">
          <mxGeometry width="50" height="50" relative="1" as="geometry">
            <mxPoint x="280" y="440" as="sourcePoint" />
            <mxPoint x="280" y="300" as="targetPoint" />
          </mxGeometry>
        </mxCell>
        <mxCell id="VB5Qx51AAR3BXwwDLeTd-20" value="" style="endArrow=none;dashed=1;html=1;dashPattern=1 3;strokeWidth=2;rounded=0;" edge="1" parent="1">
          <mxGeometry width="50" height="50" relative="1" as="geometry">
            <mxPoint x="400" y="440" as="sourcePoint" />
            <mxPoint x="400" y="250" as="targetPoint" />
          </mxGeometry>
        </mxCell>
        <mxCell id="VB5Qx51AAR3BXwwDLeTd-21" value="" style="curved=1;endArrow=none;html=1;rounded=0;edgeStyle=orthogonalEdgeStyle;endFill=0;strokeWidth=2;strokeColor=#BABABA;" edge="1" parent="1" source="VB5Qx51AAR3BXwwDLeTd-25">
          <mxGeometry width="50" height="50" relative="1" as="geometry">
            <mxPoint x="220" y="340" as="sourcePoint" />
            <mxPoint x="646" y="270" as="targetPoint" />
            <Array as="points">
              <mxPoint x="271" y="300" />
              <mxPoint x="300" y="300" />
              <mxPoint x="300" y="350" />
              <mxPoint x="330" y="350" />
              <mxPoint x="330" y="270" />
              <mxPoint x="350" y="270" />
              <mxPoint x="350" y="340" />
              <mxPoint x="380" y="340" />
              <mxPoint x="380" y="250" />
              <mxPoint x="410" y="250" />
              <mxPoint x="410" y="300" />
              <mxPoint x="440" y="300" />
              <mxPoint x="440" y="260" />
              <mxPoint x="460" y="260" />
              <mxPoint x="460" y="390" />
              <mxPoint x="510" y="390" />
              <mxPoint x="510" y="300" />
              <mxPoint x="540" y="300" />
              <mxPoint x="540" y="260" />
              <mxPoint x="576" y="260" />
              <mxPoint x="576" y="350" />
              <mxPoint x="626" y="350" />
              <mxPoint x="626" y="270" />
            </Array>
          </mxGeometry>
        </mxCell>
        <mxCell id="VB5Qx51AAR3BXwwDLeTd-22" value="" style="endArrow=none;dashed=1;html=1;dashPattern=1 3;strokeWidth=2;rounded=0;" edge="1" parent="1" target="VB5Qx51AAR3BXwwDLeTd-23">
          <mxGeometry width="50" height="50" relative="1" as="geometry">
            <mxPoint x="240" y="440" as="sourcePoint" />
            <mxPoint x="240" y="340" as="targetPoint" />
          </mxGeometry>
        </mxCell>
        <mxCell id="VB5Qx51AAR3BXwwDLeTd-23" value="" style="shape=waypoint;sketch=0;fillStyle=solid;size=6;pointerEvents=1;points=[];fillColor=none;resizable=0;rotatable=0;perimeter=centerPerimeter;snapToPoint=1;" vertex="1" parent="1">
          <mxGeometry x="230" y="330" width="20" height="20" as="geometry" />
        </mxCell>
        <mxCell id="VB5Qx51AAR3BXwwDLeTd-24" value="" style="curved=1;endArrow=none;html=1;rounded=0;edgeStyle=orthogonalEdgeStyle;endFill=0;strokeWidth=2;strokeColor=#BABABA;" edge="1" parent="1" target="VB5Qx51AAR3BXwwDLeTd-25">
          <mxGeometry width="50" height="50" relative="1" as="geometry">
            <mxPoint x="220" y="340" as="sourcePoint" />
            <mxPoint x="646" y="270" as="targetPoint" />
            <Array as="points">
              <mxPoint x="220" y="341" />
              <mxPoint x="271" y="341" />
            </Array>
          </mxGeometry>
        </mxCell>
        <mxCell id="VB5Qx51AAR3BXwwDLeTd-25" value="" style="shape=waypoint;sketch=0;fillStyle=solid;size=6;pointerEvents=1;points=[];fillColor=none;resizable=0;rotatable=0;perimeter=centerPerimeter;snapToPoint=1;" vertex="1" parent="1">
          <mxGeometry x="270" y="290" width="20" height="20" as="geometry" />
        </mxCell>
        <mxCell id="VB5Qx51AAR3BXwwDLeTd-26" value="" style="shape=waypoint;sketch=0;fillStyle=solid;size=6;pointerEvents=1;points=[];fillColor=none;resizable=0;rotatable=0;perimeter=centerPerimeter;snapToPoint=1;" vertex="1" parent="1">
          <mxGeometry x="310" y="338" width="20" height="20" as="geometry" />
        </mxCell>
        <mxCell id="VB5Qx51AAR3BXwwDLeTd-27" value="" style="endArrow=none;dashed=1;html=1;dashPattern=1 3;strokeWidth=2;rounded=0;" edge="1" parent="1" source="VB5Qx51AAR3BXwwDLeTd-26">
          <mxGeometry width="50" height="50" relative="1" as="geometry">
            <mxPoint x="300" y="630" as="sourcePoint" />
            <mxPoint x="200" y="350" as="targetPoint" />
          </mxGeometry>
        </mxCell>
        <mxCell id="VB5Qx51AAR3BXwwDLeTd-28" value="" style="shape=waypoint;sketch=0;fillStyle=solid;size=6;pointerEvents=1;points=[];fillColor=none;resizable=0;rotatable=0;perimeter=centerPerimeter;snapToPoint=1;" vertex="1" parent="1">
          <mxGeometry x="351" y="330" width="20" height="20" as="geometry" />
        </mxCell>
        <mxCell id="VB5Qx51AAR3BXwwDLeTd-29" value="" style="shape=waypoint;sketch=0;fillStyle=solid;size=6;pointerEvents=1;points=[];fillColor=none;resizable=0;rotatable=0;perimeter=centerPerimeter;snapToPoint=1;" vertex="1" parent="1">
          <mxGeometry x="390" y="240" width="20" height="20" as="geometry" />
        </mxCell>
        <mxCell id="VB5Qx51AAR3BXwwDLeTd-30" value="" style="endArrow=none;dashed=1;html=1;dashPattern=1 3;strokeWidth=2;rounded=0;" edge="1" parent="1" target="VB5Qx51AAR3BXwwDLeTd-31">
          <mxGeometry width="50" height="50" relative="1" as="geometry">
            <mxPoint x="440" y="290" as="sourcePoint" />
            <mxPoint x="200" y="290" as="targetPoint" />
          </mxGeometry>
        </mxCell>
        <mxCell id="VB5Qx51AAR3BXwwDLeTd-31" value="" style="shape=waypoint;sketch=0;fillStyle=solid;size=6;pointerEvents=1;points=[];fillColor=none;resizable=0;rotatable=0;perimeter=centerPerimeter;snapToPoint=1;" vertex="1" parent="1">
          <mxGeometry x="428" y="280" width="20" height="20" as="geometry" />
        </mxCell>
        <mxCell id="VB5Qx51AAR3BXwwDLeTd-32" value="" style="shape=waypoint;sketch=0;fillStyle=solid;size=6;pointerEvents=1;points=[];fillColor=none;resizable=0;rotatable=0;perimeter=centerPerimeter;snapToPoint=1;" vertex="1" parent="1">
          <mxGeometry x="470" y="378" width="20" height="20" as="geometry" />
        </mxCell>
        <mxCell id="VB5Qx51AAR3BXwwDLeTd-33" value="" style="shape=waypoint;sketch=0;fillStyle=solid;size=6;pointerEvents=1;points=[];fillColor=none;resizable=0;rotatable=0;perimeter=centerPerimeter;snapToPoint=1;" vertex="1" parent="1">
          <mxGeometry x="510" y="290" width="20" height="20" as="geometry" />
        </mxCell>
        <mxCell id="VB5Qx51AAR3BXwwDLeTd-34" value="" style="shape=waypoint;sketch=0;fillStyle=solid;size=6;pointerEvents=1;points=[];fillColor=none;resizable=0;rotatable=0;perimeter=centerPerimeter;snapToPoint=1;" vertex="1" parent="1">
          <mxGeometry x="550" y="248" width="20" height="20" as="geometry" />
        </mxCell>
        <mxCell id="VB5Qx51AAR3BXwwDLeTd-35" value="" style="shape=waypoint;sketch=0;fillStyle=solid;size=6;pointerEvents=1;points=[];fillColor=none;resizable=0;rotatable=0;perimeter=centerPerimeter;snapToPoint=1;" vertex="1" parent="1">
          <mxGeometry x="590" y="338" width="20" height="20" as="geometry" />
        </mxCell>
        <mxCell id="VB5Qx51AAR3BXwwDLeTd-36" value="" style="endArrow=none;dashed=1;html=1;dashPattern=1 3;strokeWidth=2;rounded=0;" edge="1" parent="1">
          <mxGeometry width="50" height="50" relative="1" as="geometry">
            <mxPoint x="260" y="440" as="sourcePoint" />
            <mxPoint x="260" y="340" as="targetPoint" />
          </mxGeometry>
        </mxCell>
        <mxCell id="VB5Qx51AAR3BXwwDLeTd-37" value="" style="shape=waypoint;sketch=0;fillStyle=solid;size=6;pointerEvents=1;points=[];fillColor=none;resizable=0;rotatable=0;perimeter=centerPerimeter;snapToPoint=1;" vertex="1" parent="1">
          <mxGeometry x="250" y="327" width="20" height="20" as="geometry" />
        </mxCell>
        <mxCell id="VB5Qx51AAR3BXwwDLeTd-38" value="" style="shape=waypoint;sketch=0;fillStyle=solid;size=6;pointerEvents=1;points=[];fillColor=none;resizable=0;rotatable=0;perimeter=centerPerimeter;snapToPoint=1;" vertex="1" parent="1">
          <mxGeometry x="290" y="323" width="20" height="20" as="geometry" />
        </mxCell>
        <mxCell id="VB5Qx51AAR3BXwwDLeTd-39" value="" style="endArrow=none;dashed=1;html=1;dashPattern=1 3;strokeWidth=2;rounded=0;" edge="1" parent="1">
          <mxGeometry width="50" height="50" relative="1" as="geometry">
            <mxPoint x="300" y="440" as="sourcePoint" />
            <mxPoint x="300" y="340" as="targetPoint" />
          </mxGeometry>
        </mxCell>
        <mxCell id="VB5Qx51AAR3BXwwDLeTd-40" value="" style="endArrow=none;dashed=1;html=1;dashPattern=1 3;strokeWidth=2;rounded=0;" edge="1" parent="1">
          <mxGeometry width="50" height="50" relative="1" as="geometry">
            <mxPoint x="340" y="270" as="sourcePoint" />
            <mxPoint x="340" y="440" as="targetPoint" />
          </mxGeometry>
        </mxCell>
        <mxCell id="VB5Qx51AAR3BXwwDLeTd-41" value="" style="shape=waypoint;sketch=0;fillStyle=solid;size=6;pointerEvents=1;points=[];fillColor=none;resizable=0;rotatable=0;perimeter=centerPerimeter;snapToPoint=1;" vertex="1" parent="1">
          <mxGeometry x="329" y="260" width="20" height="20" as="geometry" />
        </mxCell>
        <mxCell id="VB5Qx51AAR3BXwwDLeTd-42" value="" style="endArrow=none;dashed=1;html=1;dashPattern=1 3;strokeWidth=2;rounded=0;" edge="1" parent="1">
          <mxGeometry width="50" height="50" relative="1" as="geometry">
            <mxPoint x="380" y="440" as="sourcePoint" />
            <mxPoint x="380" y="320" as="targetPoint" />
          </mxGeometry>
        </mxCell>
        <mxCell id="VB5Qx51AAR3BXwwDLeTd-43" value="" style="shape=waypoint;sketch=0;fillStyle=solid;size=6;pointerEvents=1;points=[];fillColor=none;resizable=0;rotatable=0;perimeter=centerPerimeter;snapToPoint=1;" vertex="1" parent="1">
          <mxGeometry x="369" y="297" width="20" height="20" as="geometry" />
        </mxCell>
        <mxCell id="VB5Qx51AAR3BXwwDLeTd-44" value="" style="endArrow=none;dashed=1;html=1;dashPattern=1 3;strokeWidth=2;rounded=0;" edge="1" parent="1">
          <mxGeometry width="50" height="50" relative="1" as="geometry">
            <mxPoint x="420" y="440" as="sourcePoint" />
            <mxPoint x="420" y="300" as="targetPoint" />
          </mxGeometry>
        </mxCell>
        <mxCell id="VB5Qx51AAR3BXwwDLeTd-45" value="" style="shape=waypoint;sketch=0;fillStyle=solid;size=6;pointerEvents=1;points=[];fillColor=none;resizable=0;rotatable=0;perimeter=centerPerimeter;snapToPoint=1;" vertex="1" parent="1">
          <mxGeometry x="410" y="288" width="20" height="20" as="geometry" />
        </mxCell>
        <mxCell id="VB5Qx51AAR3BXwwDLeTd-46" value="" style="endArrow=none;dashed=1;html=1;dashPattern=1 3;strokeWidth=2;rounded=0;" edge="1" parent="1">
          <mxGeometry width="50" height="50" relative="1" as="geometry">
            <mxPoint x="460" y="440" as="sourcePoint" />
            <mxPoint x="460" y="350" as="targetPoint" />
          </mxGeometry>
        </mxCell>
        <mxCell id="VB5Qx51AAR3BXwwDLeTd-47" value="" style="shape=waypoint;sketch=0;fillStyle=solid;size=6;pointerEvents=1;points=[];fillColor=none;resizable=0;rotatable=0;perimeter=centerPerimeter;snapToPoint=1;" vertex="1" parent="1">
          <mxGeometry x="451" y="338" width="20" height="20" as="geometry" />
        </mxCell>
        <mxCell id="VB5Qx51AAR3BXwwDLeTd-48" value="" style="shape=waypoint;sketch=0;fillStyle=solid;size=6;pointerEvents=1;points=[];fillColor=none;resizable=0;rotatable=0;perimeter=centerPerimeter;snapToPoint=1;" vertex="1" parent="1">
          <mxGeometry x="489" y="373" width="20" height="20" as="geometry" />
        </mxCell>
        <mxCell id="VB5Qx51AAR3BXwwDLeTd-49" value="" style="endArrow=none;dashed=1;html=1;dashPattern=1 3;strokeWidth=2;rounded=0;" edge="1" parent="1">
          <mxGeometry width="50" height="50" relative="1" as="geometry">
            <mxPoint x="500" y="440" as="sourcePoint" />
            <mxPoint x="500" y="380" as="targetPoint" />
          </mxGeometry>
        </mxCell>
        <mxCell id="VB5Qx51AAR3BXwwDLeTd-50" value="" style="endArrow=none;dashed=1;html=1;dashPattern=1 3;strokeWidth=2;rounded=0;" edge="1" parent="1">
          <mxGeometry width="50" height="50" relative="1" as="geometry">
            <mxPoint x="540" y="440" as="sourcePoint" />
            <mxPoint x="540" y="280" as="targetPoint" />
          </mxGeometry>
        </mxCell>
        <mxCell id="VB5Qx51AAR3BXwwDLeTd-51" value="" style="shape=waypoint;sketch=0;fillStyle=solid;size=6;pointerEvents=1;points=[];fillColor=none;resizable=0;rotatable=0;perimeter=centerPerimeter;snapToPoint=1;" vertex="1" parent="1">
          <mxGeometry x="529" y="278" width="20" height="20" as="geometry" />
        </mxCell>
        <mxCell id="VB5Qx51AAR3BXwwDLeTd-52" value="" style="endArrow=none;dashed=1;html=1;dashPattern=1 3;strokeWidth=2;rounded=0;" edge="1" parent="1">
          <mxGeometry width="50" height="50" relative="1" as="geometry">
            <mxPoint x="580" y="440" as="sourcePoint" />
            <mxPoint x="580" y="330" as="targetPoint" />
          </mxGeometry>
        </mxCell>
        <mxCell id="VB5Qx51AAR3BXwwDLeTd-53" value="" style="shape=waypoint;sketch=0;fillStyle=solid;size=6;pointerEvents=1;points=[];fillColor=none;resizable=0;rotatable=0;perimeter=centerPerimeter;snapToPoint=1;" vertex="1" parent="1">
          <mxGeometry x="569" y="323" width="20" height="20" as="geometry" />
        </mxCell>
        <mxCell id="VB5Qx51AAR3BXwwDLeTd-54" value="" style="endArrow=none;dashed=1;html=1;dashPattern=1 3;strokeWidth=2;rounded=0;" edge="1" parent="1" source="VB5Qx51AAR3BXwwDLeTd-38">
          <mxGeometry width="50" height="50" relative="1" as="geometry">
            <mxPoint x="270" y="580" as="sourcePoint" />
            <mxPoint x="200" y="333" as="targetPoint" />
          </mxGeometry>
        </mxCell>
        <mxCell id="VB5Qx51AAR3BXwwDLeTd-55" value="" style="endArrow=none;dashed=1;html=1;dashPattern=1 3;strokeWidth=2;rounded=0;exitX=0.35;exitY=0.95;exitDx=0;exitDy=0;exitPerimeter=0;" edge="1" parent="1" source="VB5Qx51AAR3BXwwDLeTd-41">
          <mxGeometry width="50" height="50" relative="1" as="geometry">
            <mxPoint x="310" y="600" as="sourcePoint" />
            <mxPoint x="200" y="270" as="targetPoint" />
          </mxGeometry>
        </mxCell>
        <mxCell id="VB5Qx51AAR3BXwwDLeTd-56" value="" style="endArrow=none;dashed=1;html=1;dashPattern=1 3;strokeWidth=2;rounded=0;exitX=0.4;exitY=0.95;exitDx=0;exitDy=0;exitPerimeter=0;" edge="1" parent="1" source="VB5Qx51AAR3BXwwDLeTd-47">
          <mxGeometry width="50" height="50" relative="1" as="geometry">
            <mxPoint x="490" y="590" as="sourcePoint" />
            <mxPoint x="200" y="350" as="targetPoint" />
          </mxGeometry>
        </mxCell>
        <mxCell id="VB5Qx51AAR3BXwwDLeTd-57" value="" style="endArrow=none;dashed=1;html=1;dashPattern=1 3;strokeWidth=2;rounded=0;" edge="1" parent="1">
          <mxGeometry width="50" height="50" relative="1" as="geometry">
            <mxPoint x="500" y="383" as="sourcePoint" />
            <mxPoint x="200" y="383" as="targetPoint" />
          </mxGeometry>
        </mxCell>
        <mxCell id="VB5Qx51AAR3BXwwDLeTd-58" value="" style="endArrow=none;dashed=1;html=1;dashPattern=1 3;strokeWidth=2;rounded=0;exitX=0.8;exitY=0.55;exitDx=0;exitDy=0;exitPerimeter=0;" edge="1" parent="1" source="VB5Qx51AAR3BXwwDLeTd-51">
          <mxGeometry width="50" height="50" relative="1" as="geometry">
            <mxPoint x="530" y="570" as="sourcePoint" />
            <mxPoint x="200" y="287" as="targetPoint" />
          </mxGeometry>
        </mxCell>
        <mxCell id="VB5Qx51AAR3BXwwDLeTd-59" value="" style="endArrow=none;dashed=1;html=1;dashPattern=1 3;strokeWidth=2;rounded=0;exitX=0.2;exitY=1;exitDx=0;exitDy=0;exitPerimeter=0;" edge="1" parent="1" source="VB5Qx51AAR3BXwwDLeTd-53">
          <mxGeometry width="50" height="50" relative="1" as="geometry">
            <mxPoint x="410" y="570" as="sourcePoint" />
            <mxPoint x="200" y="330" as="targetPoint" />
          </mxGeometry>
        </mxCell>
        <mxCell id="VB5Qx51AAR3BXwwDLeTd-60" value="" style="endArrow=none;dashed=1;html=1;dashPattern=1 3;strokeWidth=2;rounded=0;exitX=0.4;exitY=1;exitDx=0;exitDy=0;exitPerimeter=0;" edge="1" parent="1" source="VB5Qx51AAR3BXwwDLeTd-35">
          <mxGeometry width="50" height="50" relative="1" as="geometry">
            <mxPoint x="420" y="610" as="sourcePoint" />
            <mxPoint x="200" y="349" as="targetPoint" />
          </mxGeometry>
        </mxCell>
        <mxCell id="VB5Qx51AAR3BXwwDLeTd-64" value="" style="endArrow=none;html=1;rounded=0;strokeColor=#FF2424;strokeWidth=2;" edge="1" parent="1" target="VB5Qx51AAR3BXwwDLeTd-37">
          <mxGeometry width="50" height="50" relative="1" as="geometry">
            <mxPoint x="240" y="340" as="sourcePoint" />
            <mxPoint x="450" y="520" as="targetPoint" />
          </mxGeometry>
        </mxCell>
        <mxCell id="VB5Qx51AAR3BXwwDLeTd-125" value="" style="endArrow=none;html=1;rounded=0;strokeColor=#FF2424;strokeWidth=2;" edge="1" parent="1" source="VB5Qx51AAR3BXwwDLeTd-37" target="VB5Qx51AAR3BXwwDLeTd-25">
          <mxGeometry width="50" height="50" relative="1" as="geometry">
            <mxPoint x="350" y="760" as="sourcePoint" />
            <mxPoint x="630" y="630" as="targetPoint" />
          </mxGeometry>
        </mxCell>
        <mxCell id="VB5Qx51AAR3BXwwDLeTd-126" value="" style="endArrow=none;html=1;rounded=0;strokeColor=#FF2424;strokeWidth=2;exitX=0.5;exitY=1;exitDx=0;exitDy=0;exitPerimeter=0;entryX=0.7;entryY=0.8;entryDx=0;entryDy=0;entryPerimeter=0;" edge="1" parent="1" source="VB5Qx51AAR3BXwwDLeTd-25" target="VB5Qx51AAR3BXwwDLeTd-38">
          <mxGeometry width="50" height="50" relative="1" as="geometry">
            <mxPoint x="370" y="550" as="sourcePoint" />
            <mxPoint x="390" y="547" as="targetPoint" />
          </mxGeometry>
        </mxCell>
        <mxCell id="VB5Qx51AAR3BXwwDLeTd-127" value="" style="endArrow=none;html=1;rounded=0;strokeColor=#FF2424;strokeWidth=2;exitX=0.55;exitY=0.75;exitDx=0;exitDy=0;exitPerimeter=0;entryX=0.65;entryY=0.8;entryDx=0;entryDy=0;entryPerimeter=0;" edge="1" parent="1" source="VB5Qx51AAR3BXwwDLeTd-38" target="VB5Qx51AAR3BXwwDLeTd-26">
          <mxGeometry width="50" height="50" relative="1" as="geometry">
            <mxPoint x="310" y="530" as="sourcePoint" />
            <mxPoint x="330" y="527" as="targetPoint" />
          </mxGeometry>
        </mxCell>
        <mxCell id="VB5Qx51AAR3BXwwDLeTd-128" value="" style="endArrow=none;html=1;rounded=0;strokeColor=#FF2424;strokeWidth=2;exitX=0.7;exitY=0.75;exitDx=0;exitDy=0;exitPerimeter=0;" edge="1" parent="1" source="VB5Qx51AAR3BXwwDLeTd-26" target="VB5Qx51AAR3BXwwDLeTd-41">
          <mxGeometry width="50" height="50" relative="1" as="geometry">
            <mxPoint x="320" y="660" as="sourcePoint" />
            <mxPoint x="340" y="657" as="targetPoint" />
          </mxGeometry>
        </mxCell>
        <mxCell id="VB5Qx51AAR3BXwwDLeTd-129" value="" style="endArrow=none;html=1;rounded=0;strokeColor=#FF2424;strokeWidth=2;exitX=0.6;exitY=0.15;exitDx=0;exitDy=0;exitPerimeter=0;" edge="1" parent="1" source="VB5Qx51AAR3BXwwDLeTd-41" target="VB5Qx51AAR3BXwwDLeTd-28">
          <mxGeometry width="50" height="50" relative="1" as="geometry">
            <mxPoint x="340" y="620" as="sourcePoint" />
            <mxPoint x="360" y="617" as="targetPoint" />
          </mxGeometry>
        </mxCell>
        <mxCell id="VB5Qx51AAR3BXwwDLeTd-130" value="" style="endArrow=none;html=1;rounded=0;strokeColor=#FF2424;strokeWidth=2;exitX=0.7;exitY=0.35;exitDx=0;exitDy=0;exitPerimeter=0;entryX=0.8;entryY=0.55;entryDx=0;entryDy=0;entryPerimeter=0;" edge="1" parent="1" source="VB5Qx51AAR3BXwwDLeTd-28" target="VB5Qx51AAR3BXwwDLeTd-43">
          <mxGeometry width="50" height="50" relative="1" as="geometry">
            <mxPoint x="280" y="570" as="sourcePoint" />
            <mxPoint x="300" y="567" as="targetPoint" />
          </mxGeometry>
        </mxCell>
        <mxCell id="VB5Qx51AAR3BXwwDLeTd-131" value="" style="endArrow=none;html=1;rounded=0;strokeColor=#FF2424;strokeWidth=2;exitX=0.6;exitY=0.75;exitDx=0;exitDy=0;exitPerimeter=0;" edge="1" parent="1" source="VB5Qx51AAR3BXwwDLeTd-43" target="VB5Qx51AAR3BXwwDLeTd-29">
          <mxGeometry width="50" height="50" relative="1" as="geometry">
            <mxPoint x="200" y="970" as="sourcePoint" />
            <mxPoint x="220" y="967" as="targetPoint" />
          </mxGeometry>
        </mxCell>
        <mxCell id="VB5Qx51AAR3BXwwDLeTd-132" value="" style="endArrow=none;html=1;rounded=0;strokeColor=#FF2424;strokeWidth=2;exitX=0.85;exitY=0.25;exitDx=0;exitDy=0;exitPerimeter=0;entryX=0.3;entryY=0.75;entryDx=0;entryDy=0;entryPerimeter=0;" edge="1" parent="1" source="VB5Qx51AAR3BXwwDLeTd-29" target="VB5Qx51AAR3BXwwDLeTd-45">
          <mxGeometry width="50" height="50" relative="1" as="geometry">
            <mxPoint x="310" y="670" as="sourcePoint" />
            <mxPoint x="330" y="667" as="targetPoint" />
          </mxGeometry>
        </mxCell>
        <mxCell id="VB5Qx51AAR3BXwwDLeTd-133" value="" style="endArrow=none;html=1;rounded=0;strokeColor=#FF2424;strokeWidth=2;exitX=0.5;exitY=0.8;exitDx=0;exitDy=0;exitPerimeter=0;" edge="1" parent="1" source="VB5Qx51AAR3BXwwDLeTd-45" target="VB5Qx51AAR3BXwwDLeTd-31">
          <mxGeometry width="50" height="50" relative="1" as="geometry">
            <mxPoint x="460" y="680" as="sourcePoint" />
            <mxPoint x="480" y="677" as="targetPoint" />
          </mxGeometry>
        </mxCell>
        <mxCell id="VB5Qx51AAR3BXwwDLeTd-134" value="" style="endArrow=none;html=1;rounded=0;strokeColor=#FF2424;strokeWidth=2;exitX=0.65;exitY=0.95;exitDx=0;exitDy=0;exitPerimeter=0;entryX=0.55;entryY=0.8;entryDx=0;entryDy=0;entryPerimeter=0;" edge="1" parent="1" source="VB5Qx51AAR3BXwwDLeTd-31" target="VB5Qx51AAR3BXwwDLeTd-47">
          <mxGeometry width="50" height="50" relative="1" as="geometry">
            <mxPoint x="340" y="630" as="sourcePoint" />
            <mxPoint x="360" y="627" as="targetPoint" />
          </mxGeometry>
        </mxCell>
        <mxCell id="VB5Qx51AAR3BXwwDLeTd-135" value="" style="endArrow=none;html=1;rounded=0;strokeColor=#FF2424;strokeWidth=2;exitX=0.9;exitY=0.5;exitDx=0;exitDy=0;exitPerimeter=0;entryX=0.75;entryY=0.8;entryDx=0;entryDy=0;entryPerimeter=0;" edge="1" parent="1" source="VB5Qx51AAR3BXwwDLeTd-47" target="VB5Qx51AAR3BXwwDLeTd-32">
          <mxGeometry width="50" height="50" relative="1" as="geometry">
            <mxPoint x="400" y="670" as="sourcePoint" />
            <mxPoint x="420" y="667" as="targetPoint" />
          </mxGeometry>
        </mxCell>
        <mxCell id="VB5Qx51AAR3BXwwDLeTd-136" value="" style="endArrow=none;html=1;rounded=0;strokeColor=#FF2424;strokeWidth=2;exitX=0.5;exitY=0.9;exitDx=0;exitDy=0;exitPerimeter=0;entryX=0.85;entryY=0.4;entryDx=0;entryDy=0;entryPerimeter=0;" edge="1" parent="1" source="VB5Qx51AAR3BXwwDLeTd-32" target="VB5Qx51AAR3BXwwDLeTd-48">
          <mxGeometry width="50" height="50" relative="1" as="geometry">
            <mxPoint x="410" y="620" as="sourcePoint" />
            <mxPoint x="430" y="617" as="targetPoint" />
          </mxGeometry>
        </mxCell>
        <mxCell id="VB5Qx51AAR3BXwwDLeTd-137" value="" style="endArrow=none;html=1;rounded=0;strokeColor=#FF2424;strokeWidth=2;exitX=0.8;exitY=0.5;exitDx=0;exitDy=0;exitPerimeter=0;entryX=0.5;entryY=0.5;entryDx=0;entryDy=0;entryPerimeter=0;" edge="1" parent="1" source="VB5Qx51AAR3BXwwDLeTd-48" target="VB5Qx51AAR3BXwwDLeTd-33">
          <mxGeometry width="50" height="50" relative="1" as="geometry">
            <mxPoint x="470" y="580" as="sourcePoint" />
            <mxPoint x="490" y="577" as="targetPoint" />
          </mxGeometry>
        </mxCell>
        <mxCell id="VB5Qx51AAR3BXwwDLeTd-138" value="" style="endArrow=none;html=1;rounded=0;strokeColor=#FF2424;strokeWidth=2;exitX=0.7;exitY=0.7;exitDx=0;exitDy=0;exitPerimeter=0;entryX=0.9;entryY=0.1;entryDx=0;entryDy=0;entryPerimeter=0;" edge="1" parent="1" source="VB5Qx51AAR3BXwwDLeTd-33" target="VB5Qx51AAR3BXwwDLeTd-51">
          <mxGeometry width="50" height="50" relative="1" as="geometry">
            <mxPoint x="520" y="580" as="sourcePoint" />
            <mxPoint x="540" y="577" as="targetPoint" />
          </mxGeometry>
        </mxCell>
        <mxCell id="VB5Qx51AAR3BXwwDLeTd-139" value="" style="endArrow=none;html=1;rounded=0;strokeColor=#FF2424;strokeWidth=2;exitX=0.7;exitY=0.8;exitDx=0;exitDy=0;exitPerimeter=0;entryX=0.65;entryY=0.9;entryDx=0;entryDy=0;entryPerimeter=0;" edge="1" parent="1" source="VB5Qx51AAR3BXwwDLeTd-51" target="VB5Qx51AAR3BXwwDLeTd-34">
          <mxGeometry width="50" height="50" relative="1" as="geometry">
            <mxPoint x="550" y="610" as="sourcePoint" />
            <mxPoint x="570" y="607" as="targetPoint" />
          </mxGeometry>
        </mxCell>
        <mxCell id="VB5Qx51AAR3BXwwDLeTd-140" value="" style="endArrow=none;html=1;rounded=0;strokeColor=#FF2424;strokeWidth=2;exitX=0.6;exitY=0.8;exitDx=0;exitDy=0;exitPerimeter=0;entryX=0.3;entryY=0.8;entryDx=0;entryDy=0;entryPerimeter=0;" edge="1" parent="1" source="VB5Qx51AAR3BXwwDLeTd-34" target="VB5Qx51AAR3BXwwDLeTd-53">
          <mxGeometry width="50" height="50" relative="1" as="geometry">
            <mxPoint x="530" y="590" as="sourcePoint" />
            <mxPoint x="550" y="587" as="targetPoint" />
          </mxGeometry>
        </mxCell>
        <mxCell id="VB5Qx51AAR3BXwwDLeTd-141" value="" style="endArrow=none;html=1;rounded=0;strokeColor=#FF2424;strokeWidth=2;entryX=0.55;entryY=0.7;entryDx=0;entryDy=0;entryPerimeter=0;" edge="1" parent="1" source="VB5Qx51AAR3BXwwDLeTd-53" target="VB5Qx51AAR3BXwwDLeTd-35">
          <mxGeometry width="50" height="50" relative="1" as="geometry">
            <mxPoint x="560" y="640" as="sourcePoint" />
            <mxPoint x="580" y="637" as="targetPoint" />
          </mxGeometry>
        </mxCell>
      </root>
    </mxGraphModel>
  </diagram>
</mxfile>
